<svg aria-hidden="true" style="position: absolute; width: 0; height: 0; overflow: hidden;" version="1.1" xmlns="http://www.w3.org/2000/svg" xmlns:xlink="http://www.w3.org/1999/xlink">
<defs>
<symbol id="icon-elderly" viewBox="0 0 24 24">
<path d="M13.5 5.484q0.844 0 1.43-0.586t0.586-1.383q0-0.844-0.586-1.43t-1.43-0.586-1.43 0.586-0.586 1.43q0 0.797 0.586 1.383t1.43 0.586zM20.016 12.516v10.5h-1.031v-10.5q0-0.234-0.141-0.375t-0.328-0.141q-0.234 0-0.375 0.141t-0.141 0.375v0.984h-0.984v-0.703q-1.125-0.281-2.016-0.938t-1.5-1.547q-0.234 0.609-0.375 1.289t-0.141 1.383q0 0.188 0.023 0.352t0.023 0.352l1.969 2.813v6.516h-2.016v-5.016l-1.781-2.531-0.188 3.516-3 4.031-1.594-1.219 2.578-3.469v-5.344q0-0.844 0.141-1.688t0.375-1.688l-1.5 0.844v3.563h-2.016v-4.734l5.391-3.047q0.469-0.234 0.984-0.234t0.984 0.281q0.516 0.281 0.797 0.844v0l0.797 1.688q0.469 0.938 1.43 1.57t2.133 0.633q0.609 0 1.055 0.422t0.445 1.078z"></path>
</symbol>
<symbol id="icon-mug" viewBox="0 0 48 48">
<path d="M37 36.42c0.93 0.37 1.939 0.58 3 0.58 4.42 0 8-3.58 8-8v-15c0-4.42-3.58-8-8-8-1.061 0-2.070 0.21-3 0.58v-2.58c0-2.21-1.79-4-4-4h-29c-2.21 0-4 1.79-4 4v33.85c0 5.61 4.54 10.15 10.15 10.15h16.7c5.61 0 10.15-4.54 10.15-10.15v-1.43zM9 7v29c0 1.1-0.9 2-2 2s-2-0.9-2-2l-0-29c0-1.1 0.9-2 2-2s2 0.9 2 2zM43 29c0 1.66-1.34 3-3 3s-3-1.34-3-3v-15c0-1.66 1.34-3 3-3s3 1.34 3 3v15z"></path>
</symbol>
<symbol id="icon-drink" viewBox="0 0 48 48">
<path d="M16 30v11c0 1.1-0.9 2-2 2l-5.5 0c-1.38 0-2.5 1.12-2.5 2.5s1.12 2.5 2.5 2.5h20c1.38 0 2.5-1.12 2.5-2.5s-1.12-2.5-2.5-2.5h-5.5c-1.1 0-2-0.9-2-2v-11l8.090-8.189c1.96 1.378 4.34 2.189 6.91 2.189 6.63 0 12-5.37 12-12s-5.37-12-12-12c-6.29 0-11.45 4.84-11.96 11h-22.060c-1.090 0-1.98 0.9-1.98 2 0 0.561 0.23 1.070 0.6 1.431l15.4 15.569zM32.7 18.181l3.72-3.771c0.359-0.36 0.58-0.86 0.58-1.41 0-1.1-0.891-2-1.98-2h-5.95c0.491-3.39 3.4-6 6.931-6 3.87 0 7 3.13 7 7s-3.13 7-7 7c-1.19-0-2.321-0.3-3.301-0.819z"></path>
</symbol>
<symbol id="icon-truck" viewBox="0 0 48 48">
<path d="M44 37c2.21 0 4-1.79 4-4v-25c0-2.21-1.79-4-4-4l-22 0c-2.21 0-4 1.79-4 4v4h-6.080c-1.34 0-2.53 0.53-3.39 1.38l-5.060 5.080c-0.91 0.9-1.47 2.16-1.47 3.54v10.050c-1.14 0.23-2 1.24-2 2.45 0 1.38 1.12 2.5 2.5 2.5h3.52c0.25 3.91 3.51 7 7.48 7s7.23-3.090 7.48-7h7.030c0.26 3.91 3.52 7 7.49 7s7.23-3.090 7.48-7h1.020zM16 36.5c0 1.38-1.12 2.5-2.5 2.5s-2.5-1.12-2.5-2.5 1.12-2.5 2.5-2.5 2.5 1.12 2.5 2.5zM38 36.5c0 1.38-1.12 2.5-2.5 2.5s-2.5-1.12-2.5-2.5 1.12-2.5 2.5-2.5 2.5 1.12 2.5 2.5zM7 25v-2.529c0-1 0.4-1.471 1.15-2.221l2.15-2.15c0.68-0.68 1.2-1.1 2.18-1.1l5.52-0v8l-11 0z"></path>
</symbol>
</defs>
</svg>
